<svg width="1200" height="630" viewBox="0 0 1200 630" xmlns="http://www.w3.org/2000/svg">
  <!-- Background -->
  <rect width="1200" height="630" fill="#FDFAF6"/>

  <!-- Ghana flag stripe at top -->
  <rect x="0" y="0" width="400" height="8" fill="#CE1126"/>
  <rect x="400" y="0" width="400" height="8" fill="#FCD116"/>
  <rect x="800" y="0" width="400" height="8" fill="#006B3F"/>

  <!-- Main content area with subtle border -->
  <rect x="60" y="80" width="1080" height="470" fill="white" stroke="#E5E7EB" stroke-width="2" rx="12"/>

  <!-- APDI Logo/Shield (to the left) -->
  <g transform="translate(250, 120) scale(2.5)">
    <path d="M20 2L4 10V18C4 27.94 10.84 37.14 20 39C29.16 37.14 36 27.94 36 18V10L20 2Z"
          fill="none" stroke="#2A8181" stroke-width="2.5"/>
    <circle cx="20" cy="20" r="2.5" fill="#2A8181"/>
    <line x1="20" y1="17.5" x2="20" y2="13" stroke="#2A8181" stroke-width="2"/>
    <line x1="20" y1="22.5" x2="20" y2="27" stroke="#2A8181" stroke-width="2"/>
    <line x1="17.5" y1="20" x2="13" y2="20" stroke="#2A8181" stroke-width="2"/>
    <line x1="22.5" y1="20" x2="27" y2="20" stroke="#2A8181" stroke-width="2"/>
  </g>

  <!-- APDI Text -->
  <text x="380" y="170" font-family="Inter, system-ui, sans-serif" font-size="72" font-weight="700" fill="#2A8181">
    APDI Ghana
  </text>

  <!-- Tagline -->
  <text x="380" y="215" font-family="Inter, system-ui, sans-serif" font-size="32" font-weight="600" fill="#374151">
    Protecting Digital Innovation
  </text>

  <!-- Description -->
  <text x="600" y="320" font-family="Inter, system-ui, sans-serif" font-size="28" font-weight="500" fill="#6B7280" text-anchor="middle">
    <tspan x="600" dy="0">AI-powered analysis of Ghana's digital rights legislation.</tspan>
    <tspan x="600" dy="45">Making complex legal language accessible to everyone.</tspan>
  </text>

  <!-- URL at bottom -->
  <text x="100" y="500" font-family="Inter, system-ui, sans-serif" font-size="24" font-weight="600" fill="#2A8181">
    apdi.org.gh
  </text>

  <!-- Impact indicators (decorative) -->
  <g transform="translate(900, 420)">
    <rect x="0" y="0" width="80" height="80" rx="8" fill="#FEF2F2" stroke="#FCA5A5" stroke-width="2"/>
    <text x="40" y="50" font-family="system-ui, sans-serif" font-size="36" text-anchor="middle" fill="#DC2626">!</text>
  </g>
  <g transform="translate(1000, 420)">
    <rect x="0" y="0" width="80" height="80" rx="8" fill="#F0FDF4" stroke="#86EFAC" stroke-width="2"/>
    <text x="40" y="50" font-family="system-ui, sans-serif" font-size="36" text-anchor="middle" fill="#16A34A">✓</text>
  </g>
</svg>
